<svg width="24" height="18" viewBox="0 0 24 18" fill="none" xmlns="http://www.w3.org/2000/svg">
<path opacity="0.4" d="M9.05441 17.6711C9.24683 17.8553 9.54994 17.8564 9.7436 17.6734L10.8853 16.5949C11.0931 16.3985 11.0942 16.0681 10.8877 15.8703L5.02737 10.2581L23.5 10.2581C23.7761 10.2581 24 10.0342 24 9.75807L24 8.24194C24 7.9658 23.7761 7.74194 23.5 7.74194L5.02737 7.74194L10.8877 2.12971C11.0942 1.93192 11.0931 1.60152 10.8853 1.40514L9.7436 0.326597C9.54994 0.143638 9.24683 0.144668 9.05441 0.328939L0.377081 8.63889C0.171514 8.83575 0.171514 9.16425 0.377081 9.36112L9.05441 17.6711Z" fill="#24282F"/>
</svg>
