<svg width="38" height="40" viewBox="0 0 38 40" fill="none" xmlns="http://www.w3.org/2000/svg">
<g filter="url(#filter0_dii)">
<path d="M16.3287 1.80833C16.7291 1.30094 17.4984 1.30094 17.8987 1.80833L18.805 2.95684C19.1198 3.35574 19.6837 3.45516 20.1159 3.18798L21.3603 2.4187C21.9101 2.07884 22.633 2.34196 22.8357 2.95569L23.2945 4.34491C23.4538 4.8274 23.9497 5.11368 24.4472 5.01044L25.8797 4.71317C26.5126 4.58185 27.1019 5.07635 27.0825 5.72239L27.0385 7.18475C27.0232 7.69265 27.3912 8.13126 27.8941 8.20441L29.3418 8.41501C29.9814 8.50805 30.3661 9.17429 30.1269 9.77472L29.5854 11.1338C29.3973 11.6059 29.5931 12.1439 30.0406 12.3846L31.3291 13.0777C31.8983 13.3839 32.0319 14.1415 31.6017 14.6239L30.628 15.7159C30.2898 16.0951 30.2898 16.6677 30.628 17.0469L31.6017 18.1389C32.0319 18.6213 31.8983 19.3789 31.3291 19.6851L30.0406 20.3782C29.5931 20.6189 29.3973 21.1569 29.5854 21.629L30.1269 22.9881C30.3661 23.5885 29.9814 24.2548 29.3418 24.3478L27.8941 24.5584C27.3912 24.6316 27.0232 25.0702 27.0385 25.5781L27.0825 27.0404C27.1019 27.6865 26.5126 28.181 25.8797 28.0496L24.4472 27.7524C23.9497 27.6491 23.4538 27.9354 23.2945 28.4179L22.8357 29.8071C22.633 30.4208 21.9101 30.684 21.3603 30.3441L20.1159 29.5748C19.6837 29.3076 19.1198 29.4071 18.805 29.806L17.8987 30.9545C17.4984 31.4619 16.7291 31.4619 16.3287 30.9545L15.4224 29.806C15.1076 29.4071 14.5438 29.3076 14.1115 29.5748L12.8671 30.3441C12.3173 30.684 11.5944 30.4208 11.3917 29.8071L10.9329 28.4179C10.7736 27.9354 10.2777 27.6491 9.78018 27.7524L8.34768 28.0496C7.71483 28.181 7.12551 27.6865 7.14494 27.0404L7.18894 25.5781C7.20422 25.0702 6.83618 24.6316 6.33335 24.5584L4.88556 24.3478C4.24597 24.2548 3.86131 23.5885 4.10054 22.9881L4.64204 21.629C4.83011 21.1569 4.63428 20.6189 4.18678 20.3782L2.89834 19.6851C2.32914 19.3789 2.19555 18.6213 2.62571 18.1389L3.5994 17.0469C3.93758 16.6677 3.93758 16.0951 3.5994 15.7159L2.62571 14.6239C2.19555 14.1415 2.32914 13.3839 2.89834 13.0777L4.18678 12.3846C4.63428 12.1439 4.83011 11.6059 4.64204 11.1338L4.10054 9.77472C3.86131 9.17429 4.24597 8.50805 4.88556 8.41501L6.33335 8.2044C6.83618 8.13126 7.20422 7.69265 7.18894 7.18475L7.14494 5.72239C7.12551 5.07635 7.71483 4.58185 8.34768 4.71317L9.78018 5.01044C10.2777 5.11368 10.7736 4.8274 10.9329 4.3449L11.3917 2.95569C11.5944 2.34196 12.3173 2.07884 12.8671 2.4187L14.1115 3.18798C14.5438 3.45516 15.1076 3.35574 15.4224 2.95684L16.3287 1.80833Z" fill="url(#paint0_linear)"/>
<path d="M16.5249 1.96319C16.8252 1.58265 17.4022 1.58265 17.7025 1.96319L18.6088 3.11171C19.0022 3.61033 19.7071 3.73461 20.2473 3.40063L21.4918 2.63135C21.9041 2.37646 22.4463 2.5738 22.5983 3.03409L23.0571 4.42331C23.2563 5.02643 23.8761 5.38428 24.498 5.25522L25.9305 4.95796C26.4052 4.85946 26.8472 5.23034 26.8326 5.71487L26.7886 7.17723C26.7695 7.8121 27.2295 8.36037 27.8581 8.4518L29.3059 8.66241C29.7856 8.73219 30.074 9.23187 29.8946 9.68219L29.3531 11.0413C29.118 11.6314 29.3628 12.3039 29.9222 12.6048L31.2106 13.2979C31.6375 13.5275 31.7377 14.0957 31.4151 14.4575L30.4414 15.5495C30.0187 16.0236 30.0187 16.7393 30.4414 17.2133L31.4151 18.3053C31.7377 18.6671 31.6375 19.2353 31.2106 19.4649L29.9222 20.158C29.3628 20.4589 29.118 21.1314 29.3531 21.7215L29.8946 23.0806C30.074 23.5309 29.7856 24.0306 29.3059 24.1004L27.8581 24.311C27.2295 24.4024 26.7695 24.9507 26.7886 25.5856L26.8326 27.0479C26.8472 27.5325 26.4052 27.9033 25.9305 27.8049L24.498 27.5076C23.8761 27.3785 23.2563 27.7364 23.0571 28.3395L22.5983 29.7287C22.4463 30.189 21.9041 30.3864 21.4918 30.1315L20.2473 29.3622C19.7071 29.0282 19.0022 29.1525 18.6088 29.6511L17.7025 30.7996C17.4022 31.1802 16.8252 31.1802 16.5249 30.7996L15.6187 29.6511C15.2252 29.1525 14.5204 29.0282 13.9801 29.3622L12.7357 30.1315C12.3233 30.3864 11.7811 30.189 11.6291 29.7287L11.1703 28.3395C10.9711 27.7364 10.3513 27.3785 9.72939 27.5076L8.29688 27.8049C7.82225 27.9033 7.38025 27.5325 7.39483 27.0479L7.43883 25.5856C7.45793 24.9507 6.99788 24.4024 6.36934 24.311L4.92155 24.1004C4.44185 24.0306 4.15336 23.5309 4.33278 23.0806L4.87428 21.7215C5.10937 21.1314 4.86458 20.4589 4.30522 20.158L3.01678 19.4649C2.58987 19.2353 2.48968 18.6671 2.8123 18.3053L3.78599 17.2133C4.20871 16.7393 4.20871 16.0236 3.78599 15.5495L2.8123 14.4575C2.48968 14.0957 2.58987 13.5275 3.01678 13.2979L4.30522 12.6048C4.86458 12.3039 5.10937 11.6314 4.87428 11.0413L4.33278 9.68219C4.15336 9.23187 4.44185 8.73219 4.92155 8.66241L6.36934 8.4518C6.99788 8.36037 7.45793 7.8121 7.43883 7.17723L7.39483 5.71487C7.38025 5.23034 7.82225 4.85946 8.29688 4.95796L9.72939 5.25522C10.3513 5.38428 10.9711 5.02642 11.1703 4.42331L11.6291 3.03409C11.7811 2.5738 12.3233 2.37646 12.7357 2.63135L13.9801 3.40063C14.5204 3.73461 15.2252 3.61033 15.6187 3.11171L16.5249 1.96319Z" stroke="#D29E79" stroke-width="0.5"/>
</g>
<g filter="url(#filter1_ii)">
<circle cx="17.1138" cy="16.3806" r="4.2458" fill="#C4C4C4"/>
<circle cx="17.1138" cy="16.3806" r="4.2458" fill="url(#paint1_linear)"/>
</g>
<circle cx="17.1138" cy="16.3806" r="4.0458" stroke="#D29E79" stroke-width="0.4"/>
<g filter="url(#filter2_ii)">
<circle cx="17.8215" cy="17.0889" r="3.53817" fill="#372831"/>
</g>
<g filter="url(#filter3_ii)">
<circle cx="18.5292" cy="17.7961" r="1.41527" fill="#C4C4C4"/>
<circle cx="18.5292" cy="17.7961" r="1.41527" fill="url(#paint2_linear)"/>
</g>
<defs>
<filter id="filter0_dii" x="-1.62805" y="-2.57227" width="39.4836" height="41.9072" filterUnits="userSpaceOnUse" color-interpolation-filters="sRGB">
<feFlood flood-opacity="0" result="BackgroundImageFix"/>
<feColorMatrix in="SourceAlpha" type="matrix" values="0 0 0 0 0 0 0 0 0 0 0 0 0 0 0 0 0 0 127 0"/>
<feOffset dx="2" dy="4"/>
<feGaussianBlur stdDeviation="2"/>
<feColorMatrix type="matrix" values="0 0 0 0 0 0 0 0 0 0 0 0 0 0 0 0 0 0 0.25 0"/>
<feBlend mode="normal" in2="BackgroundImageFix" result="effect1_dropShadow"/>
<feBlend mode="normal" in="SourceGraphic" in2="effect1_dropShadow" result="shape"/>
<feColorMatrix in="SourceAlpha" type="matrix" values="0 0 0 0 0 0 0 0 0 0 0 0 0 0 0 0 0 0 127 0" result="hardAlpha"/>
<feOffset dx="4" dy="4"/>
<feGaussianBlur stdDeviation="2"/>
<feComposite in2="hardAlpha" operator="arithmetic" k2="-1" k3="1"/>
<feColorMatrix type="matrix" values="0 0 0 0 0.956863 0 0 0 0 0.921569 0 0 0 0 0.737255 0 0 0 0.59 0"/>
<feBlend mode="normal" in2="shape" result="effect2_innerShadow"/>
<feColorMatrix in="SourceAlpha" type="matrix" values="0 0 0 0 0 0 0 0 0 0 0 0 0 0 0 0 0 0 127 0" result="hardAlpha"/>
<feOffset dx="-4" dy="-4"/>
<feGaussianBlur stdDeviation="2"/>
<feComposite in2="hardAlpha" operator="arithmetic" k2="-1" k3="1"/>
<feColorMatrix type="matrix" values="0 0 0 0 0.133333 0 0 0 0 0.0941176 0 0 0 0 0.12549 0 0 0 0.31 0"/>
<feBlend mode="normal" in2="effect2_innerShadow" result="effect3_innerShadow"/>
</filter>
<filter id="filter1_ii" x="10.868" y="10.1348" width="12.4916" height="12.4916" filterUnits="userSpaceOnUse" color-interpolation-filters="sRGB">
<feFlood flood-opacity="0" result="BackgroundImageFix"/>
<feBlend mode="normal" in="SourceGraphic" in2="BackgroundImageFix" result="shape"/>
<feColorMatrix in="SourceAlpha" type="matrix" values="0 0 0 0 0 0 0 0 0 0 0 0 0 0 0 0 0 0 127 0" result="hardAlpha"/>
<feOffset dx="4" dy="4"/>
<feGaussianBlur stdDeviation="1"/>
<feComposite in2="hardAlpha" operator="arithmetic" k2="-1" k3="1"/>
<feColorMatrix type="matrix" values="0 0 0 0 0.956863 0 0 0 0 0.921569 0 0 0 0 0.737255 0 0 0 0.59 0"/>
<feBlend mode="normal" in2="shape" result="effect1_innerShadow"/>
<feColorMatrix in="SourceAlpha" type="matrix" values="0 0 0 0 0 0 0 0 0 0 0 0 0 0 0 0 0 0 127 0" result="hardAlpha"/>
<feOffset dx="-4" dy="-4"/>
<feGaussianBlur stdDeviation="1"/>
<feComposite in2="hardAlpha" operator="arithmetic" k2="-1" k3="1"/>
<feColorMatrix type="matrix" values="0 0 0 0 0.133333 0 0 0 0 0.0941176 0 0 0 0 0.12549 0 0 0 0.31 0"/>
<feBlend mode="normal" in2="effect1_innerShadow" result="effect2_innerShadow"/>
</filter>
<filter id="filter2_ii" x="13.2833" y="12.5508" width="9.07633" height="9.07633" filterUnits="userSpaceOnUse" color-interpolation-filters="sRGB">
<feFlood flood-opacity="0" result="BackgroundImageFix"/>
<feBlend mode="normal" in="SourceGraphic" in2="BackgroundImageFix" result="shape"/>
<feColorMatrix in="SourceAlpha" type="matrix" values="0 0 0 0 0 0 0 0 0 0 0 0 0 0 0 0 0 0 127 0" result="hardAlpha"/>
<feOffset dx="-1" dy="-1"/>
<feGaussianBlur stdDeviation="0.5"/>
<feComposite in2="hardAlpha" operator="arithmetic" k2="-1" k3="1"/>
<feColorMatrix type="matrix" values="0 0 0 0 1 0 0 0 0 1 0 0 0 0 1 0 0 0 0.15 0"/>
<feBlend mode="normal" in2="shape" result="effect1_innerShadow"/>
<feColorMatrix in="SourceAlpha" type="matrix" values="0 0 0 0 0 0 0 0 0 0 0 0 0 0 0 0 0 0 127 0" result="hardAlpha"/>
<feOffset dx="1" dy="1"/>
<feGaussianBlur stdDeviation="0.5"/>
<feComposite in2="hardAlpha" operator="arithmetic" k2="-1" k3="1"/>
<feColorMatrix type="matrix" values="0 0 0 0 0 0 0 0 0 0 0 0 0 0 0 0 0 0 0.54 0"/>
<feBlend mode="normal" in2="effect1_innerShadow" result="effect2_innerShadow"/>
</filter>
<filter id="filter3_ii" x="15.1139" y="14.3809" width="6.83053" height="6.83053" filterUnits="userSpaceOnUse" color-interpolation-filters="sRGB">
<feFlood flood-opacity="0" result="BackgroundImageFix"/>
<feBlend mode="normal" in="SourceGraphic" in2="BackgroundImageFix" result="shape"/>
<feColorMatrix in="SourceAlpha" type="matrix" values="0 0 0 0 0 0 0 0 0 0 0 0 0 0 0 0 0 0 127 0" result="hardAlpha"/>
<feOffset dx="4" dy="4"/>
<feGaussianBlur stdDeviation="1"/>
<feComposite in2="hardAlpha" operator="arithmetic" k2="-1" k3="1"/>
<feColorMatrix type="matrix" values="0 0 0 0 0.956863 0 0 0 0 0.921569 0 0 0 0 0.737255 0 0 0 0.59 0"/>
<feBlend mode="normal" in2="shape" result="effect1_innerShadow"/>
<feColorMatrix in="SourceAlpha" type="matrix" values="0 0 0 0 0 0 0 0 0 0 0 0 0 0 0 0 0 0 127 0" result="hardAlpha"/>
<feOffset dx="-4" dy="-4"/>
<feGaussianBlur stdDeviation="1"/>
<feComposite in2="hardAlpha" operator="arithmetic" k2="-1" k3="1"/>
<feColorMatrix type="matrix" values="0 0 0 0 0.133333 0 0 0 0 0.0941176 0 0 0 0 0.12549 0 0 0 0.31 0"/>
<feBlend mode="normal" in2="effect1_innerShadow" result="effect2_innerShadow"/>
</filter>
<linearGradient id="paint0_linear" x1="17.1137" y1="0.813477" x2="17.1137" y2="31.9493" gradientUnits="userSpaceOnUse">
<stop stop-color="#CDB78E"/>
<stop offset="0.1875" stop-color="#B1A279"/>
<stop offset="0.453125" stop-color="#918A68"/>
<stop offset="0.729167" stop-color="#C2AD7E"/>
<stop offset="1" stop-color="#E3D1A3"/>
</linearGradient>
<linearGradient id="paint1_linear" x1="17.1138" y1="12.1348" x2="17.1138" y2="20.6264" gradientUnits="userSpaceOnUse">
<stop stop-color="#CDB78E"/>
<stop offset="0.1875" stop-color="#B1A279"/>
<stop offset="0.453125" stop-color="#918A68"/>
<stop offset="0.729167" stop-color="#C2AD7E"/>
<stop offset="1" stop-color="#E3D1A3"/>
</linearGradient>
<linearGradient id="paint2_linear" x1="18.5292" y1="16.3809" x2="18.5292" y2="19.2114" gradientUnits="userSpaceOnUse">
<stop stop-color="#CDB78E"/>
<stop offset="0.1875" stop-color="#B1A279"/>
<stop offset="0.453125" stop-color="#918A68"/>
<stop offset="0.729167" stop-color="#C2AD7E"/>
<stop offset="1" stop-color="#E3D1A3"/>
</linearGradient>
</defs>
</svg>
